
PLOT

A successful asset manager, who has just received a huge promotion, is blissfully happy in
his career and in his marriage. But when a temp worker starts stalking him, all the things
he's worked so hard for are placed in jeopardy.
 
http://www.imdb.com/title/tt1198138/

Encoded By .......: BigPerm1828
Runtime ..........: 1h 47mn
File Size ........: 1.03 GB
Resolution .......: 704 x 396
IMDb URL .........: http://www.imdb.com/title/tt1198138/
Genre ............: Drama | Thriller
Language .........: English
Video
ID : 0
Format : MPEG-4 Visual
Format profile : Advanced Simple@L5
Format settings, BVOP : Yes
Format settings, QPel : No
Format settings, GMC : No warppoints
Format settings, Matrix : Default (H.263)
Codec ID : XVID
Codec ID/Hint : XviD
Duration : 1h 47mn
Bit rate : 52.1 Kbps
Width : 704 pixels
Height : 396 pixels
Display aspect ratio : 16:9
Frame rate : 23.976 fps
Color space : YUV
Chroma subsampling : 4:2:0
Bit depth : 8 bits
Scan type : Progressive
Compression mode : Lossy
Bits/(Pixel*Frame) : 0.008
Stream size : 40.2 MiB (4%)
Writing library : XviD 1.2.1 (UTC 2008-12-04)

Audio
ID : 1
Format : AC-3
Format/Info : Audio Coding 3
Codec ID : 2000
Duration : 1h 47mn
Bit rate mode : Constant
Bit rate : 448 Kbps
Channel(s) : 6 channels
Sampling rate : 48.0 KHz
Bit depth : 16 bits
Compression mode : Lossy
Stream size : 346 MiB (33%)
Alignment : Aligned on interleaves
 
http://leetleech.org/images/03325559363054889060.png
 
http://leetleech.org/images/47130549680388442954.png
 
http://leetleech.org/images/87005345424587540116.png
 
http://leetleech.org/images/85091329520988590083.png